<?xml version="1.0" encoding="utf-8"?>
<!-- Generator: Adobe Illustrator 27.2.0, SVG Export Plug-In . SVG Version: 6.00 Build 0)  -->
<svg version="1.1" id="Layer_1" xmlns="http://www.w3.org/2000/svg" xmlns:xlink="http://www.w3.org/1999/xlink" x="0px" y="0px"
	 viewBox="0 0 512 512" style="enable-background:new 0 0 512 512;" xml:space="preserve">
<style type="text/css">
	.st0{fill:#212121;}
</style>
<g>
	<path class="st0" d="M111.18,74.98c10,10,10,26.2,0,36.19c-79.98,79.98-79.98,209.67,0,289.65c10,9.99,10,26.2,0,36.19
		c-9.99,9.99-26.2,9.99-36.19,0c-99.97-99.98-99.97-262.06,0-362.04C84.98,64.99,101.18,64.99,111.18,74.98z M437.02,74.98
		c99.98,99.97,99.98,262.06,0,362.04c-9.99,9.99-26.2,9.99-36.19,0c-9.99-9.99-9.99-26.2,0-36.19c79.98-79.98,79.98-209.67,0-289.65
		c-9.99-10-9.99-26.2,0-36.19C410.82,64.99,427.02,64.99,437.02,74.98z M187.1,148.52c10,9.99,10,26.2,0,36.19
		c-39.18,39.18-39.18,102.71,0,141.89c10,9.99,10,26.2,0,36.19c-9.99,9.99-26.2,9.99-36.19,0c-59.17-59.17-59.17-155.11,0-214.28
		C160.9,138.53,177.11,138.53,187.1,148.52z M365.19,148.52c59.17,59.17,59.17,155.11,0,214.28c-9.99,9.99-26.2,9.99-36.19,0
		c-9.99-9.99-9.99-26.2,0-36.19c39.18-39.18,39.18-102.71,0-141.89c-9.99-10-9.99-26.2,0-36.19
		C338.99,138.53,355.19,138.53,365.19,148.52z M258.05,219.4c21.2,0,38.39,17.19,38.39,38.39s-17.19,38.39-38.39,38.39
		s-38.39-17.19-38.39-38.39S236.85,219.4,258.05,219.4z"/>
</g>
</svg>
